<svg xmlns="http://www.w3.org/2000/svg" xmlns:xlink="http://www.w3.org/1999/xlink" xmlns:lucid="lucid" width="433.97" height="430.2"><g transform="translate(-634.9325753486585 -129.80386575490235)" lucid:page-tab-id="0_0"><path d="M654.93 149.8h393.97V540H654.93z" stroke="#000" stroke-opacity="0" stroke-width="2" fill="#834187"/><use xlink:href="#a" transform="matrix(1,0,0,1,659.9325753486585,154.80386575490235) translate(99.175 373.79999999999995)"/><use xlink:href="#b" transform="matrix(1,0,0,1,659.9325753486585,154.80386575490235) translate(197.925 373.79999999999995)"/><use xlink:href="#c" transform="matrix(1,0,0,1,659.9325753486585,154.80386575490235) translate(215.875 373.79999999999995)"/><path d="M851.04 160h180v338.53h-180z" stroke="#000" stroke-opacity="0" stroke-width="2" fill="#3aa6dd"/><use xlink:href="#d" transform="matrix(1,0,0,1,856.0386101188819,165.00000000000003) translate(159.05 14.4)"/><use xlink:href="#e" transform="matrix(1,0,0,1,856.0386101188819,165.00000000000003) translate(157.05 36)"/><use xlink:href="#f" transform="matrix(1,0,0,1,856.0386101188819,165.00000000000003) translate(157.05 57.6)"/><use xlink:href="#g" transform="matrix(1,0,0,1,856.0386101188819,165.00000000000003) translate(157.05 79.20000000000002)"/><use xlink:href="#h" transform="matrix(1,0,0,1,856.0386101188819,165.00000000000003) translate(157.05 100.80000000000001)"/><use xlink:href="#i" transform="matrix(1,0,0,1,856.0386101188819,165.00000000000003) translate(158 122.4)"/><use xlink:href="#j" transform="matrix(1,0,0,1,856.0386101188819,165.00000000000003) translate(170 144)"/><use xlink:href="#k" transform="matrix(1,0,0,1,856.0386101188819,165.00000000000003) translate(116.1 165.6)"/><use xlink:href="#l" transform="matrix(1,0,0,1,856.0386101188819,165.00000000000003) translate(140.05 187.2)"/><use xlink:href="#j" transform="matrix(1,0,0,1,856.0386101188819,165.00000000000003) translate(170 208.79999999999998)"/><use xlink:href="#m" transform="matrix(1,0,0,1,856.0386101188819,165.00000000000003) translate(170 230.39999999999998)"/><path d="M671.04 160h180v340h-180z" stroke="#000" stroke-opacity="0" stroke-width="2" fill="#19967d"/><use xlink:href="#d" transform="matrix(1,0,0,1,676.0386101188819,165) translate(0 14.4)"/><use xlink:href="#e" transform="matrix(1,0,0,1,676.0386101188819,165) translate(0 36)"/><use xlink:href="#f" transform="matrix(1,0,0,1,676.0386101188819,165) translate(0 57.6)"/><use xlink:href="#g" transform="matrix(1,0,0,1,676.0386101188819,165) translate(0 79.20000000000002)"/><use xlink:href="#h" transform="matrix(1,0,0,1,676.0386101188819,165) translate(0 100.80000000000001)"/><use xlink:href="#i" transform="matrix(1,0,0,1,676.0386101188819,165) translate(0 122.4)"/><use xlink:href="#j" transform="matrix(1,0,0,1,676.0386101188819,165) translate(0 144)"/><use xlink:href="#n" transform="matrix(1,0,0,1,676.0386101188819,165) translate(0 165.6)"/><use xlink:href="#o" transform="matrix(1,0,0,1,676.0386101188819,165) translate(0 187.2)"/><use xlink:href="#p" transform="matrix(1,0,0,1,676.0386101188819,165) translate(5 187.2)"/><use xlink:href="#q" transform="matrix(1,0,0,1,676.0386101188819,165) translate(0 208.79999999999998)"/><use xlink:href="#m" transform="matrix(1,0,0,1,676.0386101188819,165) translate(0 230.39999999999998)"/><path d="M743.34 331.87H960.5v29.94H743.34z" fill="#999" fill-opacity=".64"/><path d="M750.25 331.87h5.92m3.95 0h5.92m3.95 0h5.9m3.96 0h5.92m3.95 0h5.92m3.95 0h5.92m3.95 0h5.93m3.94 0h5.93m3.94 0h5.94m3.95 0h5.9m3.96 0h5.92m3.95 0h5.92m3.95 0h5.92m3.95 0h5.92m3.94 0h5.92m3.95 0h5.93m3.95 0h5.93m3.95 0h5.93m3.95 0h5.92m3.95 0h5.92m3.95 0h5.92m3.94 0h2.96v3m0 4v5.97m0 4v5.98m0 4v3h-2.96m-3.95 0h-5.93m-3.95 0h-5.92m-3.95 0h-5.92m-3.95 0h-5.93m-3.94 0h-5.92m-3.95 0h-5.92m-3.94 0h-5.92m-3.95 0h-5.93m-3.95 0h-5.92m-3.95 0h-5.92m-3.95 0h-5.92m-3.95 0h-5.9m-3.96 0h-5.93m-3.93 0h-5.93m-3.94 0h-5.93m-3.95 0h-5.92m-3.95 0h-5.92m-3.95 0h-5.92m-3.95 0H770m-3.96 0h-5.92m-3.95 0h-5.92m-3.95 0h-2.96v-3m0-4v-6m0-3.98v-5.98m0-4v-3h2.96" stroke="#000" stroke-width="2" fill="none"/><use xlink:href="#r" transform="matrix(1,0,0,1,748.3365341960488,336.8702941051592) translate(36.525000000000006 14.4)"/><path d="M743.34 393.74H960.5v29.94H743.34z" fill="#999" fill-opacity=".64"/><path d="M750.25 393.74h5.92m3.95 0h5.92m3.95 0h5.9m3.96 0h5.92m3.95 0h5.92m3.95 0h5.92m3.95 0h5.93m3.94 0h5.93m3.94 0h5.94m3.95 0h5.9m3.96 0h5.92m3.95 0h5.92m3.95 0h5.92m3.95 0h5.92m3.94 0h5.92m3.95 0h5.93m3.95 0h5.93m3.95 0h5.93m3.95 0h5.92m3.95 0h5.92m3.95 0h5.92m3.94 0h2.96v3m0 4v5.97m0 4v6m0 3.98v3h-2.96m-3.95 0h-5.93m-3.95 0h-5.92m-3.95 0h-5.92m-3.95 0h-5.93m-3.94 0h-5.92m-3.95 0h-5.92m-3.94 0h-5.92m-3.95 0h-5.93m-3.95 0h-5.92m-3.95 0h-5.92m-3.95 0h-5.92m-3.95 0h-5.9m-3.96 0h-5.93m-3.93 0h-5.93m-3.94 0h-5.93m-3.95 0h-5.92m-3.95 0h-5.92m-3.95 0h-5.92m-3.95 0H770m-3.96 0h-5.92m-3.95 0h-5.92m-3.95 0h-2.96v-3m0-4v-5.98m0-4v-5.97m0-4v-3h2.96" stroke="#000" stroke-width="2" fill="none"/><use xlink:href="#s" transform="matrix(1,0,0,1,748.3365341960488,398.74058821031844) translate(41.525 14.4)"/><path d="M743.34 300.94H960.5v29.93H743.34z" fill="#999" fill-opacity=".64"/><path d="M750.25 300.94h5.92m3.95 0h5.92m3.95 0h5.9m3.96 0h5.92m3.95 0h5.92m3.95 0h5.92m3.95 0h5.93m3.94 0h5.93m3.94 0h5.94m3.95 0h5.9m3.96 0h5.92m3.95 0h5.92m3.95 0h5.92m3.95 0h5.92m3.94 0h5.92m3.95 0h5.93m3.95 0h5.93m3.95 0h5.93m3.95 0h5.92m3.95 0h5.92m3.95 0h5.92m3.94 0h2.96v3m0 3.98v6m0 3.98v6m0 3.98v3h-2.96m-3.95 0h-5.93m-3.95 0h-5.92m-3.95 0h-5.92m-3.95 0h-5.93m-3.94 0h-5.92m-3.95 0h-5.92m-3.94 0h-5.92m-3.95 0h-5.93m-3.95 0h-5.92m-3.95 0h-5.92m-3.95 0h-5.92m-3.95 0h-5.9m-3.96 0h-5.93m-3.93 0h-5.93m-3.94 0h-5.93m-3.95 0h-5.92m-3.95 0h-5.92m-3.95 0h-5.92m-3.95 0H770m-3.96 0h-5.92m-3.95 0h-5.92m-3.95 0h-2.96v-3m0-4v-5.98m0-4v-5.98m0-4v-2.98h2.96" stroke="#000" stroke-width="2" fill="none"/><g><use xlink:href="#t" transform="matrix(1,0,0,1,748.3365341960488,305.93514705257957) translate(51.074999999999996 14.4)"/></g><path d="M743.34 270H960.5v29.94H743.34z" fill="#999" fill-opacity=".64"/><path d="M750.25 270h5.92m3.95 0h5.92m3.95 0h5.9m3.96 0h5.92m3.95 0h5.92m3.95 0h5.92m3.95 0h5.93m3.94 0h5.93m3.94 0h5.94m3.95 0h5.9m3.96 0h5.92m3.95 0h5.92m3.95 0h5.92m3.95 0h5.92m3.94 0h5.92m3.95 0h5.93m3.95 0h5.93m3.95 0h5.93m3.95 0h5.92m3.95 0h5.92m3.95 0h5.92m3.94 0h2.96v3m0 3.98v6m0 3.98v6m0 3.98v3h-2.96m-3.95 0h-5.93m-3.95 0h-5.92m-3.95 0h-5.92m-3.95 0h-5.93m-3.94 0h-5.92m-3.95 0h-5.92m-3.94 0h-5.92m-3.95 0h-5.93m-3.95 0h-5.92m-3.95 0h-5.92m-3.95 0h-5.92m-3.95 0h-5.9m-3.96 0h-5.93m-3.93 0h-5.93m-3.94 0h-5.93m-3.95 0h-5.92m-3.95 0h-5.92m-3.95 0h-5.92m-3.95 0H770m-3.96 0h-5.92m-3.95 0h-5.92m-3.95 0h-2.96v-3m0-4v-5.98m0-4V277m0-4V270h2.96" stroke="#000" stroke-width="2" fill="none"/><g><use xlink:href="#u" transform="matrix(1,0,0,1,748.3365341960488,274.99999999999994) translate(65.575 14.4)"/></g><path d="M743.34 424.68H960.5v29.93H743.34z" fill="#999" fill-opacity=".64"/><path d="M750.25 424.68h5.92m3.95 0h5.92m3.95 0h5.9m3.96 0h5.92m3.95 0h5.92m3.95 0h5.92m3.95 0h5.93m3.94 0h5.93m3.94 0h5.94m3.95 0h5.9m3.96 0h5.92m3.95 0h5.92m3.95 0h5.92m3.95 0h5.92m3.94 0h5.92m3.95 0h5.93m3.95 0h5.93m3.95 0h5.93m3.95 0h5.92m3.95 0h5.92m3.95 0h5.92m3.94 0h2.96v3m0 3.98v6m0 3.98v6m0 3.98v3h-2.96m-3.95 0h-5.93m-3.95 0h-5.92m-3.95 0h-5.92m-3.95 0h-5.93m-3.94 0h-5.92m-3.95 0h-5.92m-3.94 0h-5.92m-3.95 0h-5.93m-3.95 0h-5.92m-3.95 0h-5.92m-3.95 0h-5.92m-3.95 0h-5.9m-3.96 0h-5.93m-3.93 0h-5.93m-3.94 0h-5.93m-3.95 0h-5.92m-3.95 0h-5.92m-3.95 0h-5.92m-3.95 0H770m-3.96 0h-5.92m-3.95 0h-5.92m-3.95 0h-2.96v-3m0-4v-5.98m0-4v-5.98m0-4v-2.98h2.96" stroke="#000" stroke-width="2" fill="none"/><g><use xlink:href="#v" transform="matrix(1,0,0,1,748.3365341960488,429.67573526289806) translate(23.599999999999994 14.4)"/></g><path d="M743.34 177.2H960.5v29.93H743.34z" fill="#999" fill-opacity=".64"/><path d="M750.25 177.2h5.92m3.95 0h5.92m3.95 0h5.9m3.96 0h5.92m3.95 0h5.92m3.95 0h5.92m3.95 0h5.93m3.94 0h5.93m3.94 0h5.94m3.95 0h5.9m3.96 0h5.92m3.95 0h5.92m3.95 0h5.92m3.95 0h5.92m3.94 0h5.92m3.95 0h5.93m3.95 0h5.93m3.95 0h5.93m3.95 0h5.92m3.95 0h5.92m3.95 0h5.92m3.94 0h2.96v3m0 3.98v6m0 3.98v5.98m0 4v3h-2.96m-3.95 0h-5.93m-3.95 0h-5.92m-3.95 0h-5.92m-3.95 0h-5.93m-3.94 0h-5.92m-3.95 0h-5.92m-3.94 0h-5.92m-3.95 0h-5.93m-3.95 0h-5.92m-3.95 0h-5.92m-3.95 0h-5.92m-3.95 0h-5.9m-3.96 0h-5.93m-3.93 0h-5.93m-3.94 0h-5.93m-3.95 0h-5.92m-3.95 0h-5.92m-3.95 0h-5.92m-3.95 0H770m-3.96 0h-5.92m-3.95 0h-5.92m-3.95 0h-2.96v-3m0-4v-5.98m0-4v-5.98m0-4v-3h2.96" stroke="#000" stroke-width="2" fill="none"/><g><use xlink:href="#w" transform="matrix(1,0,0,1,748.3365341960488,182.19455884226113) translate(60.025 14.4)"/></g><path d="M743.34 208.13H960.5v29.93H743.34z" fill="#999" fill-opacity=".64"/><path d="M750.25 208.13h5.92m3.95 0h5.92m3.95 0h5.9m3.96 0h5.92m3.95 0h5.92m3.95 0h5.92m3.95 0h5.93m3.94 0h5.93m3.94 0h5.94m3.95 0h5.9m3.96 0h5.92m3.95 0h5.92m3.95 0h5.92m3.95 0h5.92m3.94 0h5.92m3.95 0h5.93m3.95 0h5.93m3.95 0h5.93m3.95 0h5.92m3.95 0h5.92m3.95 0h5.92m3.94 0h2.96v3m0 3.98v6m0 4v5.98m0 4v2.98h-2.96m-3.95 0h-5.93m-3.95 0h-5.92m-3.95 0h-5.92m-3.95 0h-5.93m-3.94 0h-5.92m-3.95 0h-5.92m-3.94 0h-5.92m-3.95 0h-5.93m-3.95 0h-5.92m-3.95 0h-5.92m-3.95 0h-5.92m-3.95 0h-5.9m-3.96 0h-5.93m-3.93 0h-5.93m-3.94 0h-5.93m-3.95 0h-5.92m-3.95 0h-5.92m-3.95 0h-5.92m-3.95 0H770m-3.96 0h-5.92m-3.95 0h-5.92m-3.95 0h-2.96v-3m0-3.98v-6m0-3.98v-6m0-3.98v-3h2.96" stroke="#000" stroke-width="2" fill="none"/><g><use xlink:href="#x" transform="matrix(1,0,0,1,748.3365341960488,213.12970589484073) translate(62.575 14.4)"/></g><path d="M743.34 239.06H960.5V269H743.34z" fill="#999" fill-opacity=".64"/><path d="M750.25 239.06h5.92m3.95 0h5.92m3.95 0h5.9m3.96 0h5.92m3.95 0h5.92m3.95 0h5.92m3.95 0h5.93m3.94 0h5.93m3.94 0h5.94m3.95 0h5.9m3.96 0h5.92m3.95 0h5.92m3.95 0h5.92m3.95 0h5.92m3.94 0h5.92m3.95 0h5.93m3.95 0h5.93m3.95 0h5.93m3.95 0h5.92m3.95 0h5.92m3.95 0h5.92m3.94 0h2.96v3m0 4v5.98m0 4V262m0 4V269h-2.96m-3.95 0h-5.93m-3.95 0h-5.92m-3.95 0h-5.92m-3.95 0h-5.93m-3.94 0h-5.92m-3.95 0h-5.92m-3.94 0h-5.92m-3.95 0h-5.93m-3.95 0h-5.92m-3.95 0h-5.92m-3.95 0h-5.92m-3.95 0h-5.9m-3.96 0h-5.93m-3.93 0h-5.93m-3.94 0h-5.93m-3.95 0h-5.92m-3.95 0h-5.92m-3.95 0h-5.92m-3.95 0H770m-3.96 0h-5.92m-3.95 0h-5.92m-3.95 0h-2.96v-3m0-3.98v-6m0-3.98v-6m0-3.98v-3h2.96" stroke="#000" stroke-width="2" fill="none"/><g><use xlink:href="#y" transform="matrix(1,0,0,1,748.3365341960488,244.06485294742032) translate(40.05 14.4)"/></g><path d="M743.34 362.8H960.5v29.94H743.34z" fill="#999" fill-opacity=".64"/><path d="M750.25 362.8h5.92m3.95 0h5.92m3.95 0h5.9m3.96 0h5.92m3.95 0h5.92m3.95 0h5.92m3.95 0h5.93m3.94 0h5.93m3.94 0h5.94m3.95 0h5.9m3.96 0h5.92m3.95 0h5.92m3.95 0h5.92m3.95 0h5.92m3.94 0h5.92m3.95 0h5.93m3.95 0h5.93m3.95 0h5.93m3.95 0h5.92m3.95 0h5.92m3.95 0h5.92m3.94 0h2.96v3m0 4v5.98m0 4v5.98m0 4v2.98h-2.96m-3.95 0h-5.93m-3.95 0h-5.92m-3.95 0h-5.92m-3.95 0h-5.93m-3.94 0h-5.92m-3.95 0h-5.92m-3.94 0h-5.92m-3.95 0h-5.93m-3.95 0h-5.92m-3.95 0h-5.92m-3.95 0h-5.92m-3.95 0h-5.9m-3.96 0h-5.93m-3.93 0h-5.93m-3.94 0h-5.93m-3.95 0h-5.92m-3.95 0h-5.92m-3.95 0h-5.92m-3.95 0H770m-3.96 0h-5.92m-3.95 0h-5.92m-3.95 0h-2.96v-3m0-3.98v-6m0-3.98v-6m0-3.98v-3h2.96" stroke="#000" stroke-width="2" fill="none"/><g><use xlink:href="#z" transform="matrix(1,0,0,1,748.3365341960488,367.8054411577388) translate(41.05 14.4)"/></g><path d="M743.34 455.6H960.5v29.95H743.34z" fill="#999" fill-opacity=".64"/><path d="M750.25 455.6h5.92m3.95 0h5.92m3.95 0h5.9m3.96 0h5.92m3.95 0h5.92m3.95 0h5.92m3.95 0h5.93m3.94 0h5.93m3.94 0h5.94m3.95 0h5.9m3.96 0h5.92m3.95 0h5.92m3.95 0h5.92m3.95 0h5.92m3.94 0h5.92m3.95 0h5.93m3.95 0h5.93m3.95 0h5.93m3.95 0h5.92m3.95 0h5.92m3.95 0h5.92m3.94 0h2.96v3m0 4v5.98m0 4v5.98m0 4v3h-2.96m-3.95 0h-5.93m-3.95 0h-5.92m-3.95 0h-5.92m-3.95 0h-5.93m-3.94 0h-5.92m-3.95 0h-5.92m-3.94 0h-5.92m-3.95 0h-5.93m-3.95 0h-5.92m-3.95 0h-5.92m-3.95 0h-5.92m-3.95 0h-5.9m-3.96 0h-5.93m-3.93 0h-5.93m-3.94 0h-5.93m-3.95 0h-5.92m-3.95 0h-5.92m-3.95 0h-5.92m-3.95 0H770m-3.96 0h-5.92m-3.95 0h-5.92m-3.95 0h-2.96v-3m0-4v-6m0-3.98v-5.98m0-4v-3h2.96" stroke="#000" stroke-width="2" fill="none"/><g><use xlink:href="#A" transform="matrix(1,0,0,1,748.3365341960488,460.6108823154777) translate(56.025 14.4)"/></g><defs><path d="M140-251c80 0 125 45 125 126S219 4 139 4C58 4 15-44 15-125s44-126 125-126zm-1 214c52 0 73-35 73-88 0-50-21-86-72-86-52 0-73 35-73 86s22 88 72 88" id="B"/><path d="M135-194c87-1 58 113 63 194h-50c-7-57 23-157-34-157-59 0-34 97-39 157H25l-1-190h47c2 12-1 28 3 38 12-26 28-41 61-42" id="C"/><path d="M115-3C79 11 28 4 28-45v-112H4v-33h27l15-45h31v45h36v33H77v99c-1 23 16 31 38 25v30" id="D"/><path d="M110-194c64 0 96 36 96 99 0 64-35 99-97 99-61 0-95-36-95-99 0-62 34-99 96-99zm-1 164c35 0 45-28 45-65 0-40-10-65-43-65-34 0-45 26-45 65 0 36 10 65 43 65" id="E"/><path d="M25 0v-261h50V0H25" id="F"/><path d="M195-6C206 82 75 100 31 46c-4-6-6-13-8-21l49-6c3 16 16 24 34 25 40 0 42-37 40-79-11 22-30 35-61 35-53 0-70-43-70-97 0-56 18-96 73-97 30 0 46 14 59 34l2-30h47zm-90-29c32 0 41-27 41-63 0-35-9-62-40-62-32 0-39 29-40 63 0 36 9 62 39 62" id="G"/><path d="M25-224v-37h50v37H25zM25 0v-190h50V0H25" id="H"/><path d="M185-48c-13 30-37 53-82 52C43 2 14-33 14-96s30-98 90-98c62 0 83 45 84 108H66c0 31 8 55 39 56 18 0 30-7 34-22zm-45-69c5-46-57-63-70-21-2 6-4 13-4 21h74" id="I"/><path d="M137-138c1-29-70-34-71-4 15 46 118 7 119 86 1 83-164 76-172 9l43-7c4 19 20 25 44 25 33 8 57-30 24-41C81-84 22-81 20-136c-2-80 154-74 161-7" id="J"/><g id="a"><use transform="matrix(0.05,0,0,0.05,0,0)" xlink:href="#B"/><use transform="matrix(0.05,0,0,0.05,14,0)" xlink:href="#C"/><use transform="matrix(0.05,0,0,0.05,24.950000000000003,0)" xlink:href="#D"/><use transform="matrix(0.05,0,0,0.05,30.900000000000002,0)" xlink:href="#E"/><use transform="matrix(0.05,0,0,0.05,41.85,0)" xlink:href="#F"/><use transform="matrix(0.05,0,0,0.05,46.85,0)" xlink:href="#E"/><use transform="matrix(0.05,0,0,0.05,57.800000000000004,0)" xlink:href="#G"/><use transform="matrix(0.05,0,0,0.05,68.75,0)" xlink:href="#H"/><use transform="matrix(0.05,0,0,0.05,73.75,0)" xlink:href="#I"/><use transform="matrix(0.05,0,0,0.05,83.75,0)" xlink:href="#J"/></g><path d="M168-19C124 19 11 11 16-68c3-43 29-60 59-75-25-44-12-111 53-106 37 3 64 15 64 52 0 43-40 52-69 68 12 22 27 41 43 59 14-19 21-38 28-64l37 13c-8 29-19 52-34 74 12 10 32 16 52 10v35c-28 11-65-2-81-17zm-58-139c19-9 43-14 43-39 0-14-10-22-25-22-34 0-33 41-18 61zM60-68c-3 40 55 47 79 25-18-20-34-42-48-67-18 8-30 20-31 42" id="K"/><use transform="matrix(0.05,0,0,0.05,0,0)" xlink:href="#K" id="b"/><path d="M169-182c-1-43-94-46-97-3 18 66 151 10 154 114 3 95-165 93-204 36-6-8-10-19-12-30l50-8c3 46 112 56 116 5-17-69-150-10-154-114-4-87 153-88 188-35 5 8 8 18 10 28" id="L"/><path d="M190-63c-7 42-38 67-86 67-59 0-84-38-90-98-12-110 154-137 174-36l-49 2c-2-19-15-32-35-32-30 0-35 28-38 64-6 74 65 87 74 30" id="M"/><path d="M114-157C55-157 80-60 75 0H25v-261h50l-1 109c12-26 28-41 61-42 86-1 58 113 63 194h-50c-7-57 23-157-34-157" id="N"/><path d="M220-157c-53 9-28 100-34 157h-49v-107c1-27-5-49-29-50C55-147 81-57 75 0H25l-1-190h47c2 12-1 28 3 38 10-53 101-56 108 0 13-22 24-43 59-42 82 1 51 116 57 194h-49v-107c-1-25-5-48-29-50" id="O"/><path d="M133-34C117-15 103 5 69 4 32 3 11-16 11-54c-1-60 55-63 116-61 1-26-3-47-28-47-18 1-26 9-28 27l-52-2c7-38 36-58 82-57s74 22 75 68l1 82c-1 14 12 18 25 15v27c-30 8-71 5-69-32zm-48 3c29 0 43-24 42-57-32 0-66-3-65 30 0 17 8 27 23 27" id="P"/><g id="c"><use transform="matrix(0.05,0,0,0.05,0,0)" xlink:href="#L"/><use transform="matrix(0.05,0,0,0.05,12,0)" xlink:href="#M"/><use transform="matrix(0.05,0,0,0.05,22,0)" xlink:href="#N"/><use transform="matrix(0.05,0,0,0.05,32.95,0)" xlink:href="#I"/><use transform="matrix(0.05,0,0,0.05,42.95,0)" xlink:href="#O"/><use transform="matrix(0.05,0,0,0.05,58.95,0)" xlink:href="#P"/></g><path d="M24 0v-248h52v208h133V0H24" id="Q"/><use transform="matrix(0.05,0,0,0.05,0,0)" xlink:href="#Q" id="d"/><path d="M199 0l-22-63H83L61 0H9l90-248h61L250 0h-51zm-33-102l-36-108c-10 38-24 72-36 108h72" id="R"/><use transform="matrix(0.05,0,0,0.05,0,0)" xlink:href="#R" id="e"/><path d="M175 0L67-191c6 58 2 128 3 191H24v-248h59L193-55c-6-58-2-129-3-193h46V0h-61" id="S"/><use transform="matrix(0.05,0,0,0.05,0,0)" xlink:href="#S" id="f"/><path d="M24-248c120-7 223 5 221 122C244-46 201 0 124 0H24v-248zM76-40c74 7 117-18 117-86 0-67-45-88-117-82v168" id="T"/><use transform="matrix(0.05,0,0,0.05,0,0)" xlink:href="#T" id="g"/><path d="M240-174c0 40-23 61-54 70L253 0h-59l-57-94H76V0H24v-248c93 4 217-23 216 74zM76-134c48-2 112 12 112-38 0-48-66-32-112-35v73" id="U"/><use transform="matrix(0.05,0,0,0.05,0,0)" xlink:href="#U" id="h"/><use transform="matrix(0.05,0,0,0.05,0,0)" xlink:href="#L" id="i"/><path d="M123 10C108 53 80 86 19 72V37c35 8 53-11 59-39L3-190h52l48 148c12-52 28-100 44-148h51" id="V"/><g id="k"><use transform="matrix(0.05,0,0,0.05,0,0)" xlink:href="#R"/><use transform="matrix(0.05,0,0,0.05,12.950000000000001,0)" xlink:href="#J"/><use transform="matrix(0.05,0,0,0.05,22.950000000000003,0)" xlink:href="#V"/><use transform="matrix(0.05,0,0,0.05,32.95,0)" xlink:href="#C"/><use transform="matrix(0.05,0,0,0.05,43.900000000000006,0)" xlink:href="#M"/></g><path d="M24-248c93 1 206-16 204 79-1 75-69 88-152 82V0H24v-248zm52 121c47 0 100 7 100-41 0-47-54-39-100-39v80" id="W"/><path d="M24 0v-248h52V0H24" id="X"/><g id="l"><use transform="matrix(0.05,0,0,0.05,0,0)" xlink:href="#R"/><use transform="matrix(0.05,0,0,0.05,12.950000000000001,0)" xlink:href="#W"/><use transform="matrix(0.05,0,0,0.05,24.950000000000003,0)" xlink:href="#X"/></g><path d="M135-194c53 0 70 44 70 98 0 56-19 98-73 100-31 1-45-17-59-34 3 33 2 69 2 105H25l-1-265h48c2 10 0 23 3 31 11-24 29-35 60-35zM114-30c33 0 39-31 40-66 0-38-9-64-40-64-56 0-55 130 0 130" id="Y"/><g id="n"><use transform="matrix(0.05,0,0,0.05,0,0)" xlink:href="#B"/><use transform="matrix(0.05,0,0,0.05,14,0)" xlink:href="#Y"/><use transform="matrix(0.05,0,0,0.05,24.950000000000003,0)" xlink:href="#I"/><use transform="matrix(0.05,0,0,0.05,34.95,0)" xlink:href="#C"/></g><g id="p"><use transform="matrix(0.05,0,0,0.05,0,0)" xlink:href="#R"/><use transform="matrix(0.05,0,0,0.05,12.950000000000001,0)" xlink:href="#W"/><use transform="matrix(0.05,0,0,0.05,24.950000000000003,0)" xlink:href="#X"/></g><path d="M30-248c87 1 191-15 191 75 0 78-77 80-158 76V0H30v-248zm33 125c57 0 124 11 124-50 0-59-68-47-124-48v98" id="Z"/><path d="M114-163C36-179 61-72 57 0H25l-1-190h30c1 12-1 29 2 39 6-27 23-49 58-41v29" id="aa"/><path d="M100-194c62-1 85 37 85 99 1 63-27 99-86 99S16-35 15-95c0-66 28-99 85-99zM99-20c44 1 53-31 53-75 0-43-8-75-51-75s-53 32-53 75 10 74 51 75" id="ab"/><path d="M108 0H70L1-190h34L89-25l56-165h34" id="ac"/><path d="M100-194c63 0 86 42 84 106H49c0 40 14 67 53 68 26 1 43-12 49-29l28 8c-11 28-37 45-77 45C44 4 14-33 15-96c1-61 26-98 85-98zm52 81c6-60-76-77-97-28-3 7-6 17-6 28h103" id="ad"/><path d="M117-194c89-4 53 116 60 194h-32v-121c0-31-8-49-39-48C34-167 62-67 57 0H25l-1-190h30c1 10-1 24 2 32 11-22 29-35 61-36" id="ae"/><path d="M141-36C126-15 110 5 73 4 37 3 15-17 15-53c-1-64 63-63 125-63 3-35-9-54-41-54-24 1-41 7-42 31l-33-3c5-37 33-52 76-52 45 0 72 20 72 64v82c-1 20 7 32 28 27v20c-31 9-61-2-59-35zM48-53c0 20 12 33 32 33 41-3 63-29 60-74-43 2-92-5-92 41" id="af"/><path d="M96-169c-40 0-48 33-48 73s9 75 48 75c24 0 41-14 43-38l32 2c-6 37-31 61-74 61-59 0-76-41-82-99-10-93 101-131 147-64 4 7 5 14 7 22l-32 3c-4-21-16-35-41-35" id="ag"/><path d="M-5 72V49h209v23H-5" id="ah"/><path d="M205 0l-28-72H64L36 0H1l101-248h38L239 0h-34zm-38-99l-47-123c-12 45-31 82-46 123h93" id="ai"/><path d="M33 0v-248h34V0H33" id="aj"/><g id="r"><use transform="matrix(0.05,0,0,0.05,0,0)" xlink:href="#Z"/><use transform="matrix(0.05,0,0,0.05,12,0)" xlink:href="#aa"/><use transform="matrix(0.05,0,0,0.05,17.95,0)" xlink:href="#ab"/><use transform="matrix(0.05,0,0,0.05,27.950000000000003,0)" xlink:href="#ac"/><use transform="matrix(0.05,0,0,0.05,36.95,0)" xlink:href="#ad"/><use transform="matrix(0.05,0,0,0.05,46.95,0)" xlink:href="#ae"/><use transform="matrix(0.05,0,0,0.05,56.95,0)" xlink:href="#af"/><use transform="matrix(0.05,0,0,0.05,66.95,0)" xlink:href="#ae"/><use transform="matrix(0.05,0,0,0.05,76.95,0)" xlink:href="#ag"/><use transform="matrix(0.05,0,0,0.05,85.95,0)" xlink:href="#ad"/><use transform="matrix(0.05,0,0,0.05,95.95,0)" xlink:href="#ah"/><use transform="matrix(0.05,0,0,0.05,105.95,0)" xlink:href="#ai"/><use transform="matrix(0.05,0,0,0.05,117.95,0)" xlink:href="#Z"/><use transform="matrix(0.05,0,0,0.05,129.95,0)" xlink:href="#aj"/></g><path d="M59-47c-2 24 18 29 38 22v24C64 9 27 4 27-40v-127H5v-23h24l9-43h21v43h35v23H59v120" id="ak"/><path d="M24-231v-30h32v30H24zM24 0v-190h32V0H24" id="al"/><g id="s"><use transform="matrix(0.05,0,0,0.05,0,0)" xlink:href="#ai"/><use transform="matrix(0.05,0,0,0.05,12,0)" xlink:href="#ae"/><use transform="matrix(0.05,0,0,0.05,22,0)" xlink:href="#ae"/><use transform="matrix(0.05,0,0,0.05,32,0)" xlink:href="#ab"/><use transform="matrix(0.05,0,0,0.05,42,0)" xlink:href="#ak"/><use transform="matrix(0.05,0,0,0.05,47,0)" xlink:href="#af"/><use transform="matrix(0.05,0,0,0.05,57,0)" xlink:href="#ak"/><use transform="matrix(0.05,0,0,0.05,62,0)" xlink:href="#al"/><use transform="matrix(0.05,0,0,0.05,65.95,0)" xlink:href="#ab"/><use transform="matrix(0.05,0,0,0.05,75.95,0)" xlink:href="#ae"/><use transform="matrix(0.05,0,0,0.05,85.95,0)" xlink:href="#ah"/><use transform="matrix(0.05,0,0,0.05,95.95,0)" xlink:href="#ai"/><use transform="matrix(0.05,0,0,0.05,107.95,0)" xlink:href="#Z"/><use transform="matrix(0.05,0,0,0.05,119.95,0)" xlink:href="#aj"/></g><path d="M24 0v-261h32V0H24" id="am"/><path d="M101-234c-31-9-42 10-38 44h38v23H63V0H32v-167H5v-23h27c-7-52 17-82 69-68v24" id="an"/><path d="M210-169c-67 3-38 105-44 169h-31v-121c0-29-5-50-35-48C34-165 62-65 56 0H25l-1-190h30c1 10-1 24 2 32 10-44 99-50 107 0 11-21 27-35 58-36 85-2 47 119 55 194h-31v-121c0-29-5-49-35-48" id="ao"/><g id="t"><use transform="matrix(0.05,0,0,0.05,0,0)" xlink:href="#Z"/><use transform="matrix(0.05,0,0,0.05,12,0)" xlink:href="#am"/><use transform="matrix(0.05,0,0,0.05,15.949999999999998,0)" xlink:href="#af"/><use transform="matrix(0.05,0,0,0.05,25.950000000000003,0)" xlink:href="#ak"/><use transform="matrix(0.05,0,0,0.05,30.950000000000003,0)" xlink:href="#an"/><use transform="matrix(0.05,0,0,0.05,35.95,0)" xlink:href="#ab"/><use transform="matrix(0.05,0,0,0.05,45.95,0)" xlink:href="#aa"/><use transform="matrix(0.05,0,0,0.05,51.900000000000006,0)" xlink:href="#ao"/><use transform="matrix(0.05,0,0,0.05,66.85000000000001,0)" xlink:href="#ah"/><use transform="matrix(0.05,0,0,0.05,76.85000000000001,0)" xlink:href="#ai"/><use transform="matrix(0.05,0,0,0.05,88.85000000000001,0)" xlink:href="#Z"/><use transform="matrix(0.05,0,0,0.05,100.85000000000001,0)" xlink:href="#aj"/></g><path d="M63-220v92h138v28H63V0H30v-248h175v28H63" id="ap"/><path d="M135-143c-3-34-86-38-87 0 15 53 115 12 119 90S17 21 10-45l28-5c4 36 97 45 98 0-10-56-113-15-118-90-4-57 82-63 122-42 12 7 21 19 24 35" id="aq"/><g id="u"><use transform="matrix(0.05,0,0,0.05,0,0)" xlink:href="#ap"/><use transform="matrix(0.05,0,0,0.05,10.950000000000001,0)" xlink:href="#al"/><use transform="matrix(0.05,0,0,0.05,14.9,0)" xlink:href="#am"/><use transform="matrix(0.05,0,0,0.05,18.85,0)" xlink:href="#ad"/><use transform="matrix(0.05,0,0,0.05,28.85,0)" xlink:href="#aq"/><use transform="matrix(0.05,0,0,0.05,37.85,0)" xlink:href="#ah"/><use transform="matrix(0.05,0,0,0.05,47.85,0)" xlink:href="#ai"/><use transform="matrix(0.05,0,0,0.05,59.85,0)" xlink:href="#Z"/><use transform="matrix(0.05,0,0,0.05,71.85,0)" xlink:href="#aj"/></g><path d="M30-248c118-7 216 8 213 122C240-48 200 0 122 0H30v-248zM63-27c89 8 146-16 146-99s-60-101-146-95v194" id="ar"/><path d="M137 0h-34L2-248h35l83 218 83-218h36" id="as"/><path d="M177-190C167-65 218 103 67 71c-23-6-38-20-44-43l32-5c15 47 100 32 89-28v-30C133-14 115 1 83 1 29 1 15-40 15-95c0-56 16-97 71-98 29-1 48 16 59 35 1-10 0-23 2-32h30zM94-22c36 0 50-32 50-73 0-42-14-75-50-75-39 0-46 34-46 75s6 73 46 73" id="at"/><g id="v"><use transform="matrix(0.05,0,0,0.05,0,0)" xlink:href="#ar"/><use transform="matrix(0.05,0,0,0.05,12.950000000000001,0)" xlink:href="#af"/><use transform="matrix(0.05,0,0,0.05,22.950000000000003,0)" xlink:href="#ak"/><use transform="matrix(0.05,0,0,0.05,27.950000000000003,0)" xlink:href="#af"/><use transform="matrix(0.05,0,0,0.05,37.95,0)" xlink:href="#as"/><use transform="matrix(0.05,0,0,0.05,48.95,0)" xlink:href="#ad"/><use transform="matrix(0.05,0,0,0.05,58.95,0)" xlink:href="#aa"/><use transform="matrix(0.05,0,0,0.05,64.9,0)" xlink:href="#aq"/><use transform="matrix(0.05,0,0,0.05,73.9,0)" xlink:href="#al"/><use transform="matrix(0.05,0,0,0.05,77.85000000000001,0)" xlink:href="#ab"/><use transform="matrix(0.05,0,0,0.05,87.85000000000001,0)" xlink:href="#ae"/><use transform="matrix(0.05,0,0,0.05,97.85000000000001,0)" xlink:href="#al"/><use transform="matrix(0.05,0,0,0.05,101.80000000000001,0)" xlink:href="#ae"/><use transform="matrix(0.05,0,0,0.05,111.80000000000001,0)" xlink:href="#at"/><use transform="matrix(0.05,0,0,0.05,121.80000000000001,0)" xlink:href="#ah"/><use transform="matrix(0.05,0,0,0.05,131.8,0)" xlink:href="#ai"/><use transform="matrix(0.05,0,0,0.05,143.8,0)" xlink:href="#Z"/><use transform="matrix(0.05,0,0,0.05,155.8,0)" xlink:href="#aj"/></g><path d="M140-251c81 0 123 46 123 126C263-53 228-8 163 1c7 30 30 48 69 40v23c-55 16-95-15-103-61C56-3 17-48 17-125c0-80 42-126 123-126zm0 227c63 0 89-41 89-101s-29-99-89-99c-61 0-89 39-89 99S79-25 140-24" id="au"/><path d="M84 4C-5 8 30-112 23-190h32v120c0 31 7 50 39 49 72-2 45-101 50-169h31l1 190h-30c-1-10 1-25-2-33-11 22-28 36-60 37" id="av"/><path d="M179-190L93 31C79 59 56 82 12 73V49c39 6 53-20 64-50L1-190h34L92-34l54-156h33" id="aw"/><g id="w"><use transform="matrix(0.05,0,0,0.05,0,0)" xlink:href="#au"/><use transform="matrix(0.05,0,0,0.05,14,0)" xlink:href="#av"/><use transform="matrix(0.05,0,0,0.05,24,0)" xlink:href="#ad"/><use transform="matrix(0.05,0,0,0.05,34,0)" xlink:href="#aa"/><use transform="matrix(0.05,0,0,0.05,39.95,0)" xlink:href="#aw"/><use transform="matrix(0.05,0,0,0.05,48.95,0)" xlink:href="#ah"/><use transform="matrix(0.05,0,0,0.05,58.95,0)" xlink:href="#ai"/><use transform="matrix(0.05,0,0,0.05,70.95,0)" xlink:href="#Z"/><use transform="matrix(0.05,0,0,0.05,82.95,0)" xlink:href="#aj"/></g><path d="M106-169C34-169 62-67 57 0H25v-261h32l-1 103c12-21 28-36 61-36 89 0 53 116 60 194h-32v-121c2-32-8-49-39-48" id="ax"/><g id="x"><use transform="matrix(0.05,0,0,0.05,0,0)" xlink:href="#ap"/><use transform="matrix(0.05,0,0,0.05,10.950000000000001,0)" xlink:href="#am"/><use transform="matrix(0.05,0,0,0.05,14.9,0)" xlink:href="#al"/><use transform="matrix(0.05,0,0,0.05,18.85,0)" xlink:href="#at"/><use transform="matrix(0.05,0,0,0.05,28.85,0)" xlink:href="#ax"/><use transform="matrix(0.05,0,0,0.05,38.85,0)" xlink:href="#ak"/><use transform="matrix(0.05,0,0,0.05,43.85,0)" xlink:href="#ah"/><use transform="matrix(0.05,0,0,0.05,53.85,0)" xlink:href="#ai"/><use transform="matrix(0.05,0,0,0.05,65.85,0)" xlink:href="#Z"/><use transform="matrix(0.05,0,0,0.05,77.85,0)" xlink:href="#aj"/></g><path d="M115-194c53 0 69 39 70 98 0 66-23 100-70 100C84 3 66-7 56-30L54 0H23l1-261h32v101c10-23 28-34 59-34zm-8 174c40 0 45-34 45-75 0-40-5-75-45-74-42 0-51 32-51 76 0 43 10 73 51 73" id="ay"/><g id="y"><use transform="matrix(0.05,0,0,0.05,0,0)" xlink:href="#as"/><use transform="matrix(0.05,0,0,0.05,11,0)" xlink:href="#ab"/><use transform="matrix(0.05,0,0,0.05,21,0)" xlink:href="#ag"/><use transform="matrix(0.05,0,0,0.05,30,0)" xlink:href="#af"/><use transform="matrix(0.05,0,0,0.05,40,0)" xlink:href="#ay"/><use transform="matrix(0.05,0,0,0.05,50,0)" xlink:href="#av"/><use transform="matrix(0.05,0,0,0.05,60,0)" xlink:href="#am"/><use transform="matrix(0.05,0,0,0.05,63.95,0)" xlink:href="#af"/><use transform="matrix(0.05,0,0,0.05,73.95,0)" xlink:href="#aa"/><use transform="matrix(0.05,0,0,0.05,79.9,0)" xlink:href="#aw"/><use transform="matrix(0.05,0,0,0.05,88.9,0)" xlink:href="#ah"/><use transform="matrix(0.05,0,0,0.05,98.9,0)" xlink:href="#ai"/><use transform="matrix(0.05,0,0,0.05,110.9,0)" xlink:href="#Z"/><use transform="matrix(0.05,0,0,0.05,122.9,0)" xlink:href="#aj"/></g><path d="M240 0l2-218c-23 76-54 145-80 218h-23L58-218 59 0H30v-248h44l77 211c21-75 51-140 76-211h43V0h-30" id="az"/><g id="z"><use transform="matrix(0.05,0,0,0.05,0,0)" xlink:href="#az"/><use transform="matrix(0.05,0,0,0.05,14.950000000000001,0)" xlink:href="#ad"/><use transform="matrix(0.05,0,0,0.05,24.950000000000003,0)" xlink:href="#aq"/><use transform="matrix(0.05,0,0,0.05,33.95,0)" xlink:href="#aq"/><use transform="matrix(0.05,0,0,0.05,42.95,0)" xlink:href="#af"/><use transform="matrix(0.05,0,0,0.05,52.95,0)" xlink:href="#at"/><use transform="matrix(0.05,0,0,0.05,62.95,0)" xlink:href="#al"/><use transform="matrix(0.05,0,0,0.05,66.9,0)" xlink:href="#ae"/><use transform="matrix(0.05,0,0,0.05,76.9,0)" xlink:href="#at"/><use transform="matrix(0.05,0,0,0.05,86.9,0)" xlink:href="#ah"/><use transform="matrix(0.05,0,0,0.05,96.9,0)" xlink:href="#ai"/><use transform="matrix(0.05,0,0,0.05,108.9,0)" xlink:href="#Z"/><use transform="matrix(0.05,0,0,0.05,120.9,0)" xlink:href="#aj"/></g><path d="M185-189c-5-48-123-54-124 2 14 75 158 14 163 119 3 78-121 87-175 55-17-10-28-26-33-46l33-7c5 56 141 63 141-1 0-78-155-14-162-118-5-82 145-84 179-34 5 7 8 16 11 25" id="aA"/><g id="A"><use transform="matrix(0.05,0,0,0.05,0,0)" xlink:href="#aA"/><use transform="matrix(0.05,0,0,0.05,12,0)" xlink:href="#ad"/><use transform="matrix(0.05,0,0,0.05,22,0)" xlink:href="#ae"/><use transform="matrix(0.05,0,0,0.05,32,0)" xlink:href="#aq"/><use transform="matrix(0.05,0,0,0.05,41,0)" xlink:href="#ab"/><use transform="matrix(0.05,0,0,0.05,51,0)" xlink:href="#aa"/><use transform="matrix(0.05,0,0,0.05,56.95,0)" xlink:href="#ah"/><use transform="matrix(0.05,0,0,0.05,66.95,0)" xlink:href="#ai"/><use transform="matrix(0.05,0,0,0.05,78.95,0)" xlink:href="#Z"/><use transform="matrix(0.05,0,0,0.05,90.95,0)" xlink:href="#aj"/></g></defs></g></svg>